{
  "accessors" : [ {
    "bufferView" : 0,
    "componentType" : 5126,
    "count" : 24,
    "type" : "VEC3",
    "max" : [ 0.0, 1.0, 0.5 ],
    "min" : [ -1.0, 0.0, -0.5 ]
  }, {
    "bufferView" : 1,
    "componentType" : 5126,
    "count" : 24,
    "type" : "VEC2"
  }, {
    "bufferView" : 2,
    "componentType" : 5126,
    "count" : 24,
    "type" : "VEC4"
  }, {
    "bufferView" : 3,
    "componentType" : 5125,
    "count" : 36,
    "type" : "SCALAR"
  }, {
    "bufferView" : 4,
    "componentType" : 5126,
    "count" : 1152,
    "type" : "VEC3",
    "max" : [ 1.9375, 0.3125, 1.4375 ],
    "min" : [ -0.9375, -8.0E-4, -1.4375 ]
  }, {
    "bufferView" : 5,
    "componentType" : 5126,
    "count" : 1152,
    "type" : "VEC2"
  }, {
    "bufferView" : 6,
    "componentType" : 5126,
    "count" : 1152,
    "type" : "VEC4"
  }, {
    "bufferView" : 7,
    "componentType" : 5125,
    "count" : 1728,
    "type" : "SCALAR"
  }, {
    "bufferView" : 8,
    "componentType" : 5126,
    "count" : 216,
    "type" : "VEC3",
    "max" : [ 2.8752, 1.0, 0.3752 ],
    "min" : [ 2.1248, 0.0, -0.3752 ]
  }, {
    "bufferView" : 9,
    "componentType" : 5126,
    "count" : 216,
    "type" : "VEC2"
  }, {
    "bufferView" : 10,
    "componentType" : 5126,
    "count" : 216,
    "type" : "VEC4"
  }, {
    "bufferView" : 11,
    "componentType" : 5125,
    "count" : 324,
    "type" : "SCALAR"
  }, {
    "bufferView" : 12,
    "componentType" : 5126,
    "count" : 24,
    "type" : "VEC3",
    "max" : [ 0.0, 0.0, 0.5 ],
    "min" : [ -1.0, -1.0, -0.5 ]
  }, {
    "bufferView" : 13,
    "componentType" : 5126,
    "count" : 24,
    "type" : "VEC2"
  }, {
    "bufferView" : 14,
    "componentType" : 5126,
    "count" : 24,
    "type" : "VEC4"
  }, {
    "bufferView" : 15,
    "componentType" : 5125,
    "count" : 36,
    "type" : "SCALAR"
  }, {
    "bufferView" : 16,
    "componentType" : 5126,
    "count" : 216,
    "type" : "VEC3",
    "max" : [ 5.9997017E-4, 1.0, 0.5006 ],
    "min" : [ -1.0006, 0.0, -0.5006 ]
  }, {
    "bufferView" : 17,
    "componentType" : 5126,
    "count" : 216,
    "type" : "VEC2"
  }, {
    "bufferView" : 18,
    "componentType" : 5126,
    "count" : 216,
    "type" : "VEC4"
  }, {
    "bufferView" : 19,
    "componentType" : 5125,
    "count" : 324,
    "type" : "SCALAR"
  }, {
    "bufferView" : 20,
    "componentType" : 5126,
    "count" : 480,
    "type" : "VEC3",
    "max" : [ -0.06190003, -0.04400009, 0.4381 ],
    "min" : [ -0.9381, -0.9190001, -0.4381 ]
  }, {
    "bufferView" : 21,
    "componentType" : 5126,
    "count" : 480,
    "type" : "VEC2"
  }, {
    "bufferView" : 22,
    "componentType" : 5126,
    "count" : 480,
    "type" : "VEC4"
  }, {
    "bufferView" : 23,
    "componentType" : 5125,
    "count" : 720,
    "type" : "SCALAR"
  }, {
    "bufferView" : 24,
    "componentType" : 5126,
    "count" : 8,
    "type" : "VEC3",
    "max" : [ 2.0, 0.0, 2.5 ],
    "min" : [ 1.0, -1.0, 1.5 ]
  }, {
    "bufferView" : 25,
    "componentType" : 5126,
    "count" : 8,
    "type" : "VEC2"
  }, {
    "bufferView" : 26,
    "componentType" : 5126,
    "count" : 8,
    "type" : "VEC4"
  }, {
    "bufferView" : 27,
    "componentType" : 5125,
    "count" : 12,
    "type" : "SCALAR"
  }, {
    "bufferView" : 28,
    "componentType" : 5126,
    "count" : 8,
    "type" : "VEC3",
    "max" : [ 1.0, 0.0, 2.5 ],
    "min" : [ 0.0, -1.0, 1.5 ]
  }, {
    "bufferView" : 29,
    "componentType" : 5126,
    "count" : 8,
    "type" : "VEC2"
  }, {
    "bufferView" : 30,
    "componentType" : 5126,
    "count" : 8,
    "type" : "VEC4"
  }, {
    "bufferView" : 31,
    "componentType" : 5125,
    "count" : 12,
    "type" : "SCALAR"
  }, {
    "bufferView" : 32,
    "componentType" : 5126,
    "count" : 260,
    "type" : "VEC3",
    "max" : [ 3.0, 2.0, 3.5 ],
    "min" : [ -2.0, -1.0, -2.5 ]
  }, {
    "bufferView" : 33,
    "componentType" : 5126,
    "count" : 260,
    "type" : "VEC2"
  }, {
    "bufferView" : 34,
    "componentType" : 5126,
    "count" : 260,
    "type" : "VEC4"
  }, {
    "bufferView" : 35,
    "componentType" : 5125,
    "count" : 390,
    "type" : "SCALAR"
  }, {
    "bufferView" : 36,
    "componentType" : 5126,
    "count" : 76,
    "type" : "VEC3",
    "max" : [ 2.0, 0.0, 1.5 ],
    "min" : [ -1.0, -1.0, -1.5 ]
  }, {
    "bufferView" : 37,
    "componentType" : 5126,
    "count" : 76,
    "type" : "VEC2"
  }, {
    "bufferView" : 38,
    "componentType" : 5126,
    "count" : 76,
    "type" : "VEC4"
  }, {
    "bufferView" : 39,
    "componentType" : 5125,
    "count" : 114,
    "type" : "SCALAR"
  }, {
    "bufferView" : 40,
    "componentType" : 5126,
    "count" : 8,
    "type" : "VEC3",
    "max" : [ 0.0, 0.0, 2.5 ],
    "min" : [ -1.0, -1.0, 1.5 ]
  }, {
    "bufferView" : 41,
    "componentType" : 5126,
    "count" : 8,
    "type" : "VEC2"
  }, {
    "bufferView" : 42,
    "componentType" : 5126,
    "count" : 8,
    "type" : "VEC4"
  }, {
    "bufferView" : 43,
    "componentType" : 5125,
    "count" : 12,
    "type" : "SCALAR"
  } ],
  "asset" : {
    "generator" : "VoxelBridge",
    "version" : "2.0"
  },
  "buffers" : [ {
    "uri" : "scene.bin",
    "byteLength" : 84048
  }, {
    "uri" : "scene.uv.bin",
    "byteLength" : 19776
  } ],
  "bufferViews" : [ {
    "buffer" : 0,
    "byteOffset" : 0,
    "byteLength" : 288,
    "target" : 34962
  }, {
    "buffer" : 1,
    "byteOffset" : 0,
    "byteLength" : 192,
    "target" : 34962
  }, {
    "buffer" : 0,
    "byteOffset" : 288,
    "byteLength" : 384,
    "target" : 34962
  }, {
    "buffer" : 0,
    "byteOffset" : 672,
    "byteLength" : 144,
    "target" : 34963
  }, {
    "buffer" : 0,
    "byteOffset" : 816,
    "byteLength" : 13824,
    "target" : 34962
  }, {
    "buffer" : 1,
    "byteOffset" : 192,
    "byteLength" : 9216,
    "target" : 34962
  }, {
    "buffer" : 0,
    "byteOffset" : 14640,
    "byteLength" : 18432,
    "target" : 34962
  }, {
    "buffer" : 0,
    "byteOffset" : 33072,
    "byteLength" : 6912,
    "target" : 34963
  }, {
    "buffer" : 0,
    "byteOffset" : 39984,
    "byteLength" : 2592,
    "target" : 34962
  }, {
    "buffer" : 1,
    "byteOffset" : 9408,
    "byteLength" : 1728,
    "target" : 34962
  }, {
    "buffer" : 0,
    "byteOffset" : 42576,
    "byteLength" : 3456,
    "target" : 34962
  }, {
    "buffer" : 0,
    "byteOffset" : 46032,
    "byteLength" : 1296,
    "target" : 34963
  }, {
    "buffer" : 0,
    "byteOffset" : 47328,
    "byteLength" : 288,
    "target" : 34962
  }, {
    "buffer" : 1,
    "byteOffset" : 11136,
    "byteLength" : 192,
    "target" : 34962
  }, {
    "buffer" : 0,
    "byteOffset" : 47616,
    "byteLength" : 384,
    "target" : 34962
  }, {
    "buffer" : 0,
    "byteOffset" : 48000,
    "byteLength" : 144,
    "target" : 34963
  }, {
    "buffer" : 0,
    "byteOffset" : 48144,
    "byteLength" : 2592,
    "target" : 34962
  }, {
    "buffer" : 1,
    "byteOffset" : 11328,
    "byteLength" : 1728,
    "target" : 34962
  }, {
    "buffer" : 0,
    "byteOffset" : 50736,
    "byteLength" : 3456,
    "target" : 34962
  }, {
    "buffer" : 0,
    "byteOffset" : 54192,
    "byteLength" : 1296,
    "target" : 34963
  }, {
    "buffer" : 0,
    "byteOffset" : 55488,
    "byteLength" : 5760,
    "target" : 34962
  }, {
    "buffer" : 1,
    "byteOffset" : 13056,
    "byteLength" : 3840,
    "target" : 34962
  }, {
    "buffer" : 0,
    "byteOffset" : 61248,
    "byteLength" : 7680,
    "target" : 34962
  }, {
    "buffer" : 0,
    "byteOffset" : 68928,
    "byteLength" : 2880,
    "target" : 34963
  }, {
    "buffer" : 0,
    "byteOffset" : 71808,
    "byteLength" : 96,
    "target" : 34962
  }, {
    "buffer" : 1,
    "byteOffset" : 16896,
    "byteLength" : 64,
    "target" : 34962
  }, {
    "buffer" : 0,
    "byteOffset" : 71904,
    "byteLength" : 128,
    "target" : 34962
  }, {
    "buffer" : 0,
    "byteOffset" : 72032,
    "byteLength" : 48,
    "target" : 34963
  }, {
    "buffer" : 0,
    "byteOffset" : 72080,
    "byteLength" : 96,
    "target" : 34962
  }, {
    "buffer" : 1,
    "byteOffset" : 16960,
    "byteLength" : 64,
    "target" : 34962
  }, {
    "buffer" : 0,
    "byteOffset" : 72176,
    "byteLength" : 128,
    "target" : 34962
  }, {
    "buffer" : 0,
    "byteOffset" : 72304,
    "byteLength" : 48,
    "target" : 34963
  }, {
    "buffer" : 0,
    "byteOffset" : 72352,
    "byteLength" : 3120,
    "target" : 34962
  }, {
    "buffer" : 1,
    "byteOffset" : 17024,
    "byteLength" : 2080,
    "target" : 34962
  }, {
    "buffer" : 0,
    "byteOffset" : 75472,
    "byteLength" : 4160,
    "target" : 34962
  }, {
    "buffer" : 0,
    "byteOffset" : 79632,
    "byteLength" : 1560,
    "target" : 34963
  }, {
    "buffer" : 0,
    "byteOffset" : 81192,
    "byteLength" : 912,
    "target" : 34962
  }, {
    "buffer" : 1,
    "byteOffset" : 19104,
    "byteLength" : 608,
    "target" : 34962
  }, {
    "buffer" : 0,
    "byteOffset" : 82104,
    "byteLength" : 1216,
    "target" : 34962
  }, {
    "buffer" : 0,
    "byteOffset" : 83320,
    "byteLength" : 456,
    "target" : 34963
  }, {
    "buffer" : 0,
    "byteOffset" : 83776,
    "byteLength" : 96,
    "target" : 34962
  }, {
    "buffer" : 1,
    "byteOffset" : 19712,
    "byteLength" : 64,
    "target" : 34962
  }, {
    "buffer" : 0,
    "byteOffset" : 83872,
    "byteLength" : 128,
    "target" : 34962
  }, {
    "buffer" : 0,
    "byteOffset" : 84000,
    "byteLength" : 48,
    "target" : 34963
  } ],
  "images" : [ {
    "uri" : "textures/atlas/atlas_1001.png"
  }, {
    "uri" : "textures/atlas/atlas_1001.png"
  }, {
    "uri" : "textures/atlas/atlas_1001.png"
  }, {
    "uri" : "textures/atlas/atlas_1001.png"
  }, {
    "uri" : "textures/atlas/atlas_1001.png"
  }, {
    "uri" : "textures/atlas/atlas_1001.png"
  }, {
    "uri" : "textures/atlas/atlas_1001.png"
  }, {
    "uri" : "textures/atlas/atlas_1001.png"
  }, {
    "uri" : "textures/atlas/atlas_1001.png"
  }, {
    "uri" : "textures/atlas/atlas_1001.png"
  }, {
    "uri" : "textures/atlas/atlas_1001.png"
  } ],
  "materials" : [ {
    "name" : "ars_nouveau:arcane_core_emissive",
    "pbrMetallicRoughness" : {
      "baseColorTexture" : {
        "index" : 0
      },
      "metallicFactor" : 0.0,
      "roughnessFactor" : 1.0
    },
    "doubleSided" : false
  }, {
    "name" : "ars_nouveau:arcane_platform",
    "pbrMetallicRoughness" : {
      "baseColorTexture" : {
        "index" : 1
      },
      "metallicFactor" : 0.0,
      "roughnessFactor" : 1.0
    },
    "doubleSided" : false
  }, {
    "name" : "ars_nouveau:creative_source_jar",
    "pbrMetallicRoughness" : {
      "baseColorTexture" : {
        "index" : 2
      },
      "metallicFactor" : 0.0,
      "roughnessFactor" : 1.0
    },
    "doubleSided" : false
  }, {
    "name" : "ars_nouveau:enchanting_apparatus",
    "pbrMetallicRoughness" : {
      "baseColorTexture" : {
        "index" : 3
      },
      "metallicFactor" : 0.0,
      "roughnessFactor" : 1.0
    },
    "doubleSided" : false
  }, {
    "name" : "blockentity:ars_nouveau:arcane_core",
    "pbrMetallicRoughness" : {
      "baseColorTexture" : {
        "index" : 4
      },
      "metallicFactor" : 0.0,
      "roughnessFactor" : 1.0
    },
    "doubleSided" : false
  }, {
    "name" : "blockentity:ars_nouveau:enchanting_apparatus",
    "pbrMetallicRoughness" : {
      "baseColorTexture" : {
        "index" : 5
      },
      "metallicFactor" : 0.0,
      "roughnessFactor" : 1.0
    },
    "doubleSided" : false
  }, {
    "name" : "extendedae:ex_pattern_provider",
    "pbrMetallicRoughness" : {
      "baseColorTexture" : {
        "index" : 6
      },
      "metallicFactor" : 0.0,
      "roughnessFactor" : 1.0
    },
    "doubleSided" : false
  }, {
    "name" : "minecraft:barrel",
    "pbrMetallicRoughness" : {
      "baseColorTexture" : {
        "index" : 7
      },
      "metallicFactor" : 0.0,
      "roughnessFactor" : 1.0
    },
    "doubleSided" : false
  }, {
    "name" : "minecraft:white_concrete",
    "pbrMetallicRoughness" : {
      "baseColorTexture" : {
        "index" : 8
      },
      "metallicFactor" : 0.0,
      "roughnessFactor" : 1.0
    },
    "doubleSided" : false
  }, {
    "name" : "sfm:cable",
    "pbrMetallicRoughness" : {
      "baseColorTexture" : {
        "index" : 9
      },
      "metallicFactor" : 0.0,
      "roughnessFactor" : 1.0
    },
    "doubleSided" : false
  }, {
    "name" : "sfm:manager",
    "pbrMetallicRoughness" : {
      "baseColorTexture" : {
        "index" : 10
      },
      "metallicFactor" : 0.0,
      "roughnessFactor" : 1.0
    },
    "doubleSided" : false
  } ],
  "meshes" : [ {
    "name" : "ars_nouveau:arcane_core_emissive",
    "primitives" : [ {
      "attributes" : {
        "POSITION" : 0,
        "TEXCOORD_0" : 1,
        "COLOR_0" : 2
      },
      "indices" : 3,
      "material" : 0,
      "mode" : 4
    } ]
  }, {
    "name" : "ars_nouveau:arcane_platform",
    "primitives" : [ {
      "attributes" : {
        "POSITION" : 4,
        "TEXCOORD_0" : 5,
        "COLOR_0" : 6
      },
      "indices" : 7,
      "material" : 1,
      "mode" : 4
    } ]
  }, {
    "name" : "ars_nouveau:creative_source_jar",
    "primitives" : [ {
      "attributes" : {
        "POSITION" : 8,
        "TEXCOORD_0" : 9,
        "COLOR_0" : 10
      },
      "indices" : 11,
      "material" : 2,
      "mode" : 4
    } ]
  }, {
    "name" : "ars_nouveau:enchanting_apparatus",
    "primitives" : [ {
      "attributes" : {
        "POSITION" : 12,
        "TEXCOORD_0" : 13,
        "COLOR_0" : 14
      },
      "indices" : 15,
      "material" : 3,
      "mode" : 4
    } ]
  }, {
    "name" : "blockentity:ars_nouveau:arcane_core",
    "primitives" : [ {
      "attributes" : {
        "POSITION" : 16,
        "TEXCOORD_0" : 17,
        "COLOR_0" : 18
      },
      "indices" : 19,
      "material" : 4,
      "mode" : 4
    } ]
  }, {
    "name" : "blockentity:ars_nouveau:enchanting_apparatus",
    "primitives" : [ {
      "attributes" : {
        "POSITION" : 20,
        "TEXCOORD_0" : 21,
        "COLOR_0" : 22
      },
      "indices" : 23,
      "material" : 5,
      "mode" : 4
    } ]
  }, {
    "name" : "extendedae:ex_pattern_provider",
    "primitives" : [ {
      "attributes" : {
        "POSITION" : 24,
        "TEXCOORD_0" : 25,
        "COLOR_0" : 26
      },
      "indices" : 27,
      "material" : 6,
      "mode" : 4
    } ]
  }, {
    "name" : "minecraft:barrel",
    "primitives" : [ {
      "attributes" : {
        "POSITION" : 28,
        "TEXCOORD_0" : 29,
        "COLOR_0" : 30
      },
      "indices" : 31,
      "material" : 7,
      "mode" : 4
    } ]
  }, {
    "name" : "minecraft:white_concrete",
    "primitives" : [ {
      "attributes" : {
        "POSITION" : 32,
        "TEXCOORD_0" : 33,
        "COLOR_0" : 34
      },
      "indices" : 35,
      "material" : 8,
      "mode" : 4
    } ]
  }, {
    "name" : "sfm:cable",
    "primitives" : [ {
      "attributes" : {
        "POSITION" : 36,
        "TEXCOORD_0" : 37,
        "COLOR_0" : 38
      },
      "indices" : 39,
      "material" : 9,
      "mode" : 4
    } ]
  }, {
    "name" : "sfm:manager",
    "primitives" : [ {
      "attributes" : {
        "POSITION" : 40,
        "TEXCOORD_0" : 41,
        "COLOR_0" : 42
      },
      "indices" : 43,
      "material" : 10,
      "mode" : 4
    } ]
  } ],
  "nodes" : [ {
    "name" : "ars_nouveau:arcane_core_emissive",
    "mesh" : 0
  }, {
    "name" : "ars_nouveau:arcane_platform",
    "mesh" : 1
  }, {
    "name" : "ars_nouveau:creative_source_jar",
    "mesh" : 2
  }, {
    "name" : "ars_nouveau:enchanting_apparatus",
    "mesh" : 3
  }, {
    "name" : "blockentity:ars_nouveau:arcane_core",
    "mesh" : 4
  }, {
    "name" : "blockentity:ars_nouveau:enchanting_apparatus",
    "mesh" : 5
  }, {
    "name" : "extendedae:ex_pattern_provider",
    "mesh" : 6
  }, {
    "name" : "minecraft:barrel",
    "mesh" : 7
  }, {
    "name" : "minecraft:white_concrete",
    "mesh" : 8
  }, {
    "name" : "sfm:cable",
    "mesh" : 9
  }, {
    "name" : "sfm:manager",
    "mesh" : 10
  } ],
  "samplers" : [ {
    "magFilter" : 9728,
    "minFilter" : 9728,
    "wrapS" : 10497,
    "wrapT" : 10497
  } ],
  "scene" : 0,
  "scenes" : [ {
    "nodes" : [ 0, 1, 2, 3, 4, 5, 6, 7, 8, 9, 10 ]
  } ],
  "textures" : [ {
    "sampler" : 0,
    "source" : 0
  }, {
    "sampler" : 0,
    "source" : 1
  }, {
    "sampler" : 0,
    "source" : 2
  }, {
    "sampler" : 0,
    "source" : 3
  }, {
    "sampler" : 0,
    "source" : 4
  }, {
    "sampler" : 0,
    "source" : 5
  }, {
    "sampler" : 0,
    "source" : 6
  }, {
    "sampler" : 0,
    "source" : 7
  }, {
    "sampler" : 0,
    "source" : 8
  }, {
    "sampler" : 0,
    "source" : 9
  }, {
    "sampler" : 0,
    "source" : 10
  } ]
}